pedal_clip_forces.mot
version=1
nRows=185
nColumns=4
inDegrees=yes
endheader
time	PedalClip_calcn_r_Fx	PedalClip_calcn_r_Fy	PedalClip_calcn_r_Fz
0	24.7036094110163	-12.7494426452033	-0
0.00110511	25.0294652993688	-13.35388436017	-0
0.00545656	25.3530922485096	-13.9569736942859	-0
0.00980802	25.6744914563755	-14.5587090284815	-0
0.01415947	25.9936641356557	-15.1590886090202	-0
0.01763525	26.310611513982	-15.7581105653815	-0
0.02111103	26.6253348341253	-16.3557729266584	-0
0.02477872	26.9378353542012	-16.9520736364791	-0
0.02844641	27.2481143478911	-17.5470105665	-0
0.03085593	27.5561731046766	-18.1405815285231	-0
0.03391677	27.8620129300905	-18.7327842853239	-0
0.03661525	28.1656351459864	-19.3236165602696	-0
0.03998969	28.4670410908305	-19.9130760458396	-0
0.04195055	28.7662321201461	-20.501160411149	-0
0.04446128	29.0632096332343	-21.08786730859	-0
0.04700036	29.3579752017007	-21.6731943797029	-0
0.0496468	29.6505306953874	-22.2571392603982	-0
0.05162536	29.9408782794206	-22.8396995856366	-0
0.05360393	30.2290202827992	-23.4208729936818	-0
0.05630381	30.5149590117883	-24.0006571300327	-0
0.05828168	30.7986965906076	-24.5790496511386	-0
0.06025956	31.0802348875295	-25.1560482279954	-0
0.06287669	31.3595755433636	-25.7316505497178	-0
0.06441905	31.6367200697565	-26.3058543271738	-0
0.06629296	31.9116699399637	-26.8786572967663	-0
0.06821587	32.1844266140528	-27.4500572244407	-0
0.07013878	32.4549915420375	-28.0200519099925	-0
0.07206169	32.7233661655136	-28.588639191741	-0
0.07398461	32.9895519193978	-29.1558169516414	-0
0.07564213	33.2535502337836	-29.7215831208934	-0
0.07729965	33.5153625359327	-30.2859356861059	-0
0.07895718	33.7749902524171	-30.8488726960821	-0
0.0806147	34.0324348114352	-31.4103922692737	-0
0.08227223	34.287697645331	-31.9704926019704	-0
0.08392975	34.5407801933306	-32.5291719772768	-0
0.0852406	34.7916839045489	-33.0864287749378	-0
0.08686127	35.0404102412831	-33.6422614820826	-0
0.0881387	35.2869606826474	-34.1966687049485	-0
0.08972497	35.5313367286002	-34.7496491816701	-0
0.09100179	35.7735399044088	-35.3012017962158	-0
0.09254868	36.0135717656295	-35.8513255935767	-0
0.09389292	36.2514339036775	-36.4000197963265	-0
0.09523717	36.4871279520686	-36.9472838226923	-0
0.09641954	36.7206555934496	-37.4931173063093	-0
0.0976019	36.9520185675314	-38.0375201178677	-0
0.09866987	37.1812186800783	-38.5804923889081	-0
0.10022347	37.4082578131184	-39.122034538083	-0
0.10177708	37.6331379365935	-39.6621473002936	-0
0.10333068	37.8558611216836	-40.2008317592115	-0
0.10408077	38.0764295561222	-40.7380893838729	-0
0.10515764	38.2948455618557	-41.2739220702725	-0
0.10605938	38.5111116155135	-41.8083321883007	-0
0.10732779	38.7252303722353	-42.3413226323231	-0
0.10859621	38.9372046935765	-42.8728968784996	-0
0.10940172	39.1470376803748	-43.4030590509567	-0
0.11049385	39.354732711741	-43.9318139981971	-0
0.11158599	39.5602934916515	-44.4591673807485	-0
0.11267812	39.7637241051451	-44.9851257700223	-0
0.11468068	39.9650290867473	-45.5096967563397	-0
0.11524848	40.1642135047197	-46.0328890611812	-0
0.1160868	40.361283066107	-46.5547126453018	-0
0.11688808	40.556244249541	-47.0751788003748	-0
0.11795748	40.7491044757641	-47.5943002052616	-0
0.11902688	40.9398723303793	-48.1120909147045	-0
0.1198644	41.1285578603358	-48.6285662234521	-0
0.12070192	41.3151729767713	-49.1437423081185	-0
0.12151605	41.4997320147126	-49.6576354874422	-0
0.12251491	41.6822525297495	-50.1702608523165	-0
0.12351378	41.8627564620272	-50.6816299003413	-0
0.12415041	42.0412718857037	-51.1917466929035	-0
0.12505705	42.2178357203865	-51.7006020369202	-0
0.12596369	42.3924980770904	-52.2081655504627	-0
0.12687033	42.5653294868792	-52.7143768025511	-0
0.12758136	42.7364334301586	-53.2191400859818	-0
0.1286412	42.9059690814518	-53.722334072874	-0
0.12970104	43.064121144481	-54.2203605137137	-0
0.13064256	43.2209309659363	-54.7163662501846	-0
0.13158408	43.3765533449139	-55.2103271663629	-0
0.13227406	43.5311861932645	-55.7022220535575	-0
0.13296404	43.685086556514	-56.1920339458553	-0
0.13426854	43.838592463425	-56.6797518065133	-0
0.13473909	43.9921510186048	-57.1653725278354	-0
0.13547966	44.1463496316617	-57.6489030911474	-0
0.13616999	44.3019367281027	-58.1303625978738	-0
0.13703514	44.459791520358	-58.6097837990795	-0
0.13768102	44.6207461541273	-59.0872137705315	-0
0.13849182	44.785083767319	-59.5627134946742	-0
0.13912473	44.9515559467394	-60.0363562660498	-0
0.13991845	45.1162757509562	-60.5082249705623	-0
0.1405468	45.2730135196161	-60.9784083572688	-0
0.14133282	45.4162378114867	-61.446996534146	-0
0.14195457	45.544710991383	-61.9140765351025	-0
0.14273005	45.6615823203454	-62.3797292857058	-0
0.14334641	45.7713813530407	-62.8440280116354	-0
0.14411378	45.8775605870141	-63.307037731124	-0
0.14472507	45.9819665657018	-63.7688154938512	-0
0.14548409	46.0853343542149	-64.2294110900951	-0
0.14609056	46.1878773911989	-64.6888680197282	-0
0.14684222	46.2896485141026	-65.1472245709701	-0
0.14744422	46.3906775036514	-65.604514908899	-0
0.14818862	46.4909929115948	-66.0607701123261	-0
0.14878638	46.5906224357542	-66.5160191255771	-0
0.14952423	46.6895923321906	-66.9702896107636	-0
0.15011794	46.7879268251887	-67.4236086982845	-0
0.15084926	46.8856475283355	-67.8760036404071	-0
0.1514392	46.9827728971825	-68.3275023763972	-0
0.1521647	47.0793177506156	-68.778134019008	-0
0.15275091	47.1752929223208	-69.2279292720656	-0
0.15347044	47.270705130503	-69.6769207880112	-0
0.15405329	47.3655571744235	-70.1251434729937	-0
0.15476763	47.4598485687813	-70.5726347457017	-0
0.155347	47.5535766999933	-71.0194347547748	-0
0.1560558	47.6467385253632	-71.4655865584534	-0
0.1566322	47.7393327402033	-71.9111311266159	-0
0.15733644	47.8313622254098	-72.3560737968685	-0
0.15790952	47.9228364870895	-72.8003203052082	-0
0.15860844	48.0137737444097	-73.2436596242924	-0
0.15917898	48.104202339561	-73.6858477288943	-0
0.15987409	48.1941612462891	-74.1267253066818	-0
0.1604413	48.2836996291329	-74.5662506869849	-0
0.16113102	48.3728755997053	-75.0044983810206	-0
0.16169631	48.4617544505355	-75.4416512328071	-0
0.16238328	48.550406666961	-75.8779875640881	-0
0.16294489	48.6389059221417	-76.313863216508	-0
0.16362581	48.7273271014153	-76.7496895255286	-0
0.16418657	48.8157442587961	-77.1859090852245	-0
0.16486662	48.9042283488198	-77.622971577371	-0
0.16542258	48.9928446565587	-78.0613120090613	-0
0.16609455	49.0816500852927	-78.5013330808193	-0
0.16665196	49.1706907171769	-78.943392656206	-0
0.16732706	49.2600003427955	-79.3877965205546	-0
0.16787664	49.3496007135626	-79.8347959294694	-0
0.16853831	49.4395030811079	-80.28458900503	-0
0.1690949	49.5297102726358	-80.7373249044264	-0
0.16976923	49.6202187949083	-81.1931098196185	-0
0.17031018	49.7110207043219	-81.6520140713326	-0
0.17085113	49.8021051428279	-82.1140796376462	-0
0.17189949	49.8934595336036	-82.5793274727054	-0
0.17229287	49.9850704769552	-83.047764113262	-0
0.17289465	50.0769244038695	-83.5193873122027	-0
0.17349734	50.1690078818768	-83.9941906274349	-0
0.17410002	50.2613069288139	-84.4721669995762	-0
0.17524524	50.3538049386756	-84.9533114093216	-0
0.17551721	50.4464795252766	-85.4376227346474	-0
0.17624924	50.5392987019293	-85.9251049384933	-0
0.1768616	50.6322167408286	-86.4157677167256	-0
0.17746294	50.7251700008672	-86.9096267294435	-0
0.17806429	50.8180730295358	-87.4067035296592	-0
0.17921481	50.9108153500834	-87.9070252938321	-0
0.17969377	51.0032595244633	-88.4106245443593	-0
0.18017272	51.0952412986478	-88.9175410587335	-0
0.18076275	51.1865728315582	-89.4278361083949	-0
0.18136158	51.2770500984012	-89.9416312748292	-0
0.18196041	51.3664654322868	-90.4591749581927	-0
0.18312229	51.4546256965261	-90.9809286159889	-0
0.18359469	51.5413756512766	-91.5076505622165	-0
0.18406709	51.6266246558248	-92.0404363648969	-0
0.18465512	51.7103730537049	-92.5806604963275	-0
0.18525175	51.7927328570495	-93.1297765269615	-0
0.18584838	51.8739369230491	-93.6889938541182	-0
0.18701278	51.9543331275193	-94.2589404937991	-0
0.18746963	52.0343630555771	-94.8394712111808	-0
0.18792648	52.114528743509	-95.4297206153701	-0
0.18879198	52.1953542694497	-96.0283626458487	-0
0.18965748	52.2773494582326	-96.633935743325	-0
0.19052298	52.3609806788268	-97.2450983652065	-0
0.19116747	52.4466508081466	-97.8607568158134	-0
0.19181196	52.5346886152018	-98.4800805631792	-0
0.19241046	52.6253467253967	-99.1024512624809	-0
0.19301222	52.7188063541181	-99.7273878857758	-0
0.19361398	52.8151864453691	-100.354473563647	-0
0.19478297	52.9145549497496	-100.983294722679	-0
0.19524159	53.016940494463	-101.613394329595	-0
0.19570021	53.1223433163695	-102.244237484008	-0
0.19627439	53.2307448647722	-102.875186969133	-0
0.1968606	53.342115871362	-103.505487026784	-0
0.19744681	53.4564229304743	-104.134254736267	-0
0.19860561	53.5736337596343	-104.760479582442	-0
0.19933559	53.6937213521149	-105.383032928238	-0
0.19992932	53.8166672204467	-106.000690059392	-0
0.20052305	53.9424638871436	-106.612168125967	-0
0.20132438	54.0711167243445	-107.21618347729	-0
0.20186613	54.2026451904637	-107.811531308085	-0
0.20240787	54.3370834693294	-108.397188893818	-0
0.2035007	54.4744804947463	-108.97244073068	-0
